<svg width="59" height="66" viewBox="0 0 59 66" fill="none" xmlns="http://www.w3.org/2000/svg">
<path d="M21.9242 0.165527C20.9016 0.301625 19.8745 0.465623 18.8414 0.657214C21.4511 2.48755 23.8501 5.05836 25.3535 9.58538C22.2227 6.09583 19.7912 3.46255 15.8221 1.29058C14.7145 1.55037 13.5976 1.84272 12.4701 2.16482C15.3234 3.83039 18.6352 6.20961 21.9158 10.1177C14.6906 6.1721 11.6303 5.30219 6.79665 4.01035C5.27467 4.5628 3.72793 5.16764 2.15226 5.82534C9.04509 6.37283 15.1207 8.87032 25.7113 13.2219L25.9647 13.3262L26.1537 13.5593C26.8823 14.4573 28.0848 14.9938 29.3231 15.0091C28.9804 8.89714 26.9606 4.49925 21.9243 0.165527H21.9242ZM36.8308 0.165527C31.7945 4.49925 29.7749 8.89714 29.4321 15.0091C30.6704 14.9936 31.8729 14.4573 32.6014 13.5593L32.7903 13.3262L33.0436 13.222C43.6345 8.87079 49.7099 6.37314 56.6028 5.82565C55.0271 5.16795 53.4804 4.56311 51.9583 4.01051C47.1246 5.30234 44.0643 6.17225 36.8391 10.1178C40.1197 6.20976 43.4315 3.8307 46.285 2.16482C45.1577 1.84287 44.0407 1.55053 42.9331 1.29058C38.9639 3.46286 36.5323 6.09583 33.4017 9.58553C34.9049 5.05852 37.304 2.48771 39.9138 0.657368C38.8806 0.465778 37.8536 0.301779 36.8309 0.165682L36.8308 0.165527ZM0.328857 8.54481V55.3198C5.94745 55.3492 13.6598 57.9259 24.2217 62.2173V15.5537C13.2856 11.0632 7.45521 8.76523 0.328857 8.54481ZM58.4262 8.54481C51.2998 8.76538 45.4695 11.0631 34.5333 15.5538V62.219C45.1363 57.9256 52.5678 55.6312 58.4262 55.3677V8.54481ZM26.4852 17.1005V48.1525C28.4306 48.633 30.3471 48.6628 32.2698 48.1675V17.1005C31.361 17.5745 30.3659 17.8008 29.3775 17.8008C28.3891 17.8008 27.394 17.5745 26.4852 17.1005ZM26.4852 50.9895V53.1492C28.4087 53.6899 30.3222 53.6582 32.2698 53.1337V51.0067C30.337 51.4295 28.4012 51.4007 26.4852 50.9895ZM32.2698 55.9784C30.3551 56.4211 28.4177 56.4524 26.4852 55.9978V63.5681C26.8904 64.0703 27.2114 64.4789 27.5371 64.7399C27.95 65.071 28.3885 65.2809 29.3321 65.2344L29.3548 65.2332H29.3774C30.8374 65.2332 31.3836 64.6069 32.2697 63.5535V55.9783L32.2698 55.9784Z" fill="white"/>
</svg>