<svg width="60" height="65" viewBox="0 0 60 65" fill="none" xmlns="http://www.w3.org/2000/svg">
                <path d="M30.2845 0.302979C27.9685 2.65476 24.3388 5.2134 20.4823 7.587C16.5219 10.0248 12.4277 12.1613 9.35246 13.4448C9.60171 15.0968 10.4393 18.2659 11.7693 21.9951C13.3569 26.4466 15.5485 31.7629 17.9243 36.8509C20.3 41.939 22.8661 46.8069 25.1716 50.345C26.3243 52.114 27.4161 53.5503 28.3425 54.4943C29.2688 55.4382 30.0325 55.7924 30.2845 55.7924C30.5365 55.7924 31.3002 55.4382 32.2266 54.4943C33.153 53.5503 34.2448 52.114 35.3975 50.345C37.703 46.8069 40.269 41.939 42.6448 36.8509C45.0206 31.7629 47.2121 26.4466 48.7999 21.9951C50.1298 18.2659 50.9674 15.0968 51.2167 13.4448C48.1413 12.1613 44.0472 10.0248 40.0867 7.587C36.2303 5.2134 32.6005 2.65476 30.2845 0.302979ZM13.6481 1.72638C9.61834 4.06893 5.56361 6.40298 1.54718 8.76077L0.924316 9.12643V9.93761C0.924316 11.5491 1.47044 13.8152 2.24238 16.5079C3.01444 19.2006 4.03423 22.1688 5.07633 24.5915L7.10508 23.4122C6.13103 21.1468 5.13467 18.2553 4.39462 15.6739C3.82367 13.6828 3.4246 11.8075 3.26897 10.7082C7.048 8.49458 10.861 6.29501 14.6625 4.08505L13.6481 1.72638ZM46.9209 1.72638L45.9066 4.08505C49.7081 6.29501 53.5212 8.49472 57.3001 10.7084C57.1446 11.8075 56.7454 13.6828 56.1746 15.6739C55.4344 18.2552 54.4382 21.1468 53.4639 23.4123L55.4929 24.5915C56.5347 22.1688 57.5546 19.2004 58.3266 16.5079C59.0986 13.815 59.6447 11.5491 59.6447 9.93761V9.12643L59.0219 8.76077C55.0055 6.40298 50.9506 4.06893 46.9209 1.72638ZM30.2845 7.05491L31.1385 8.19103C32.0667 9.42603 34.6298 11.1401 37.352 12.5614C40.0745 13.9828 42.9724 15.2196 44.8017 16.0309L45.5317 16.3546V17.2627C45.5317 18.1863 45.301 19.1549 44.9494 20.377C44.5978 21.5991 44.1064 23.0264 43.5143 24.5933C42.3303 27.7268 40.7443 31.4117 39.0941 34.9518C37.4439 38.492 35.7328 41.8805 34.2866 44.426C33.5634 45.6988 32.9106 46.7577 32.3363 47.5483C32.0493 47.9436 31.7854 48.2718 31.5054 48.5457C31.2256 48.8197 30.9659 49.1282 30.338 49.1626L30.2845 49.1656L30.2311 49.1626C29.6032 49.1282 29.3435 48.8198 29.0636 48.5459C28.7836 48.2719 28.5198 47.9438 28.2327 47.5482C27.6586 46.7577 27.0056 45.6988 26.2825 44.426C24.8363 41.8805 23.1252 38.492 21.475 34.9518C19.8247 31.4117 18.2388 27.7268 17.0548 24.5931C16.4628 23.0264 15.9712 21.5991 15.6197 20.377C15.2681 19.1549 15.0374 18.1863 15.0374 17.2627V16.3545L15.7674 16.0309C17.5966 15.2196 20.4946 13.9828 23.217 12.5614C25.9392 11.1401 28.5024 9.42603 29.4306 8.19103L30.2845 7.05491ZM30.2845 10.8865C28.7361 12.4337 26.4961 13.7402 24.1462 14.967C21.6764 16.2566 19.2336 17.3223 17.4249 18.1176C17.5015 18.5103 17.6144 18.9974 17.7707 19.5406C18.0886 20.6455 18.5578 22.0147 19.1316 23.5327C20.2786 26.5688 21.8429 30.2073 23.4689 33.6955C25.095 37.1836 26.7861 40.528 28.1751 42.9727C28.8696 44.1951 29.4924 45.1954 29.9657 45.8473C30.1009 46.0334 30.1808 46.1134 30.2845 46.2361C30.3882 46.1134 30.4681 46.0334 30.6033 45.8473C31.0766 45.1954 31.6995 44.1951 32.3939 42.9727C33.7829 40.528 35.4741 37.1836 37.1001 33.6954C38.7262 30.2072 40.2904 26.5688 41.4376 23.5327C42.0112 22.0147 42.4805 20.6455 42.7984 19.5406C42.9337 19.0732 43.0491 18.5983 43.1442 18.1176C41.3354 17.3223 38.8926 16.2566 36.4228 14.967C34.073 13.7402 31.8329 12.4337 30.2845 10.8865ZM23.1151 55.4225L21.3248 57.0413C21.3248 57.0413 22.544 58.8679 24.2123 60.7053C25.8804 62.5429 27.924 64.5824 30.2845 64.5824C32.6451 64.5824 34.6886 62.5429 36.3569 60.7053C38.025 58.8679 39.2443 57.0413 39.2443 57.0413L37.454 55.4225C37.454 55.4225 36.321 57.1122 34.7971 58.7908C33.273 60.4694 31.2842 61.9454 30.2845 61.9454C29.2849 61.9454 27.2961 60.4694 25.7721 58.7908C24.248 57.1122 23.1151 55.4225 23.1151 55.4225Z" fill="white"/>
                </svg>    