<svg width="67" height="63" viewBox="0 0 67 63" fill="none" xmlns="http://www.w3.org/2000/svg">
<path d="M48.2322 51.4178C44.1092 55.407 38.8874 57.5191 33.5279 57.5191C20.9536 57.5191 10.7156 45.8639 10.7156 31.5495V29.3593H14.3573C15.0446 29.3593 15.663 28.968 15.9376 28.2642C16.2812 27.6383 16.2122 26.7778 15.869 26.1521L10.0288 15.9057C9.34148 14.7326 7.62364 14.7326 7.00535 15.9057L1.16461 26.1526C0.821437 26.8565 0.821436 27.639 1.09608 28.2647C1.43973 28.8906 2.05802 29.3598 2.67632 29.3598H6.31804V31.55C6.31804 48.6024 18.5487 62.5259 33.5279 62.5259C39.9869 62.5259 46.1708 59.9445 51.1181 55.1729C52.08 54.3124 52.1485 52.6695 51.3927 51.653C50.5683 50.636 49.1941 50.4793 48.2322 51.4178Z" fill="white"/>
<path d="M65.9598 34.8348C65.6161 34.209 64.9978 33.7398 64.3795 33.7398H60.7378V31.5496C60.7378 14.4972 48.5072 0.57373 33.528 0.57373C27.069 0.57373 20.8851 3.15505 15.9378 7.92672C14.9759 8.78719 14.9073 10.4301 15.6632 11.4466C16.419 12.5416 17.8622 12.6197 18.7551 11.7592C22.878 7.77004 28.0999 5.65791 33.4594 5.65791C46.0336 5.65791 56.2717 17.3131 56.2717 31.6275V33.8178H52.6299C51.9426 33.8178 51.3243 34.209 51.0497 34.9128C50.706 35.5387 50.7751 36.3992 51.1182 37.025L57.0269 47.1939C57.3706 47.8198 57.9203 48.1324 58.5386 48.1324C59.1569 48.1324 59.7066 47.7412 60.0503 47.1939L65.891 36.8684C66.2342 36.2431 66.2342 35.4607 65.9595 34.8347L65.9598 34.8348Z" fill="white"/>
<path d="M36.6886 17.7824H30.4357C29.9545 17.7824 29.5423 18.2516 29.5423 18.7994V26.9342H22.3275C21.8463 26.9342 21.4341 27.4035 21.4341 27.9513V35.0696C21.4341 35.6174 21.8463 36.0866 22.3275 36.0866H29.4733V44.2214C29.4733 44.7693 29.8854 45.2385 30.3666 45.2385H36.6195C37.1007 45.2385 37.5129 44.7692 37.5129 44.2214V36.164H44.6587C45.1399 36.164 45.5521 35.6948 45.5521 35.147V28.0287C45.5521 27.4808 45.1399 27.0116 44.6587 27.0116L37.5814 27.0122V18.7987C37.5814 18.2515 37.1692 17.7822 36.6885 17.7822L36.6886 17.7824Z" fill="white"/>
</svg>