<svg width="59" height="66" viewBox="0 0 59 66" fill="none" xmlns="http://www.w3.org/2000/svg">
<path d="M4.20665 0.709229C1.85057 0.819316 0.487254 2.25276 0.525185 4.82499L2.92843 9.0083C3.467 8.84344 4.06635 8.48668 4.6606 8.0114L9.82428 16.1572C7.75536 18.9882 6.02416 22.197 4.63191 25.7845L7.85967 29.3932C9.2304 26.1857 10.8545 23.3009 12.7126 20.7134L38.3426 61.1432L58.6217 65.6572L54.5839 42.9863L18.41 14.3263C20.8301 12.1371 23.4968 10.2613 26.3915 8.67545L23.1634 5.06705C19.8558 6.67119 16.9094 8.67899 14.3208 11.0868L7.05631 5.33112C7.47489 4.67562 7.79329 4.00803 7.9489 3.39549L4.20665 0.709229ZM52.9378 12.5254L49.5304 29.51L46.477 18.5567L44.2759 28.161L41.0102 21.4144L40.9392 29.2725L56.5594 41.7341L58.4053 53.5605L58.2633 28.161L54.0743 33.5584L52.9378 12.5254ZM16.3505 16.3281L43.3669 43.0165L46.4846 52.0885L38.3697 48.6031L14.4978 18.4021C15.0947 17.6848 15.7131 16.9941 16.3505 16.3281ZM20.2786 43.0043L23.686 46.0996L19.2839 46.6552L26.3132 49.2745L13.4622 49.8303L27.4492 53.5611L15.1664 56.1008L30.6446 59.5932L22.4793 65.5464L47.8264 65.7845L37.2476 63.7207L24.5383 43.2424L20.2786 43.0043Z" fill="white"/>
</svg>
