<svg width="60" height="67" viewBox="0 0 60 67" fill="none" xmlns="http://www.w3.org/2000/svg">
<path d="M11.9515 0.67041C7.24926 0.679015 4.32635 4.44726 8.10149 11.1393C-0.197932 10.9048 -2.10661 23.9511 6.68692 28.2021C13.4171 31.4555 16.7517 27.3399 24.2353 30.3546C16.3788 29.2244 9.61302 33.4663 5.35789 39.9064C0.631961 47.0589 2.39963 57.1382 10.3174 54.2962C9.20986 63.9226 17.9738 68.6579 23.0698 61.0608C27.4626 54.5122 24.9733 46.18 28.205 34.8312C29.0764 43.6811 27.5156 50.43 29.6253 58.7077C32.2509 69.0096 42.2756 69.551 44.1733 59.617C51.0264 66.9759 55.9332 58.2674 53.4705 48.6247C51.2622 39.9786 42.3316 34.5408 32.895 31.6002C41.8306 31.1653 46.2535 37.9839 53.4864 35.9149C62.3777 33.3715 61.3859 20.3643 52.1581 17.4247C57.7751 9.54832 49.7715 1.64166 41.4586 4.06978C34.4492 6.11712 30.3087 14.3928 28.9491 24.6263C28.268 15.2153 25.4117 7.396 19.0044 3.06784C16.594 1.43958 14.0889 0.666681 11.9515 0.67041Z" fill="white"/>
</svg>
